<svg width="17" height="17" viewBox="0 0 17 17" fill="none" xmlns="http://www.w3.org/2000/svg">
<path fill-rule="evenodd" clip-rule="evenodd" d="M8.48904 1.73077C4.94261 1.73077 2.06767 4.76146 2.06767 8.5C2.06767 12.2385 4.94261 15.2692 8.48904 15.2692C12.0355 15.2692 14.9104 12.2385 14.9104 8.5C14.9104 4.76146 12.0355 1.73077 8.48904 1.73077ZM0.900146 8.5C0.900146 4.08172 4.29781 0.5 8.48904 0.5C12.6803 0.5 16.0779 4.08172 16.0779 8.5C16.0779 12.9183 12.6803 16.5 8.48904 16.5C4.29781 16.5 0.900146 12.9183 0.900146 8.5Z" fill="#FF859B"/>
<path fill-rule="evenodd" clip-rule="evenodd" d="M8.48904 3.57692C8.81144 3.57692 9.0728 3.85244 9.0728 4.19231V7.88462H12.5754C12.8978 7.88462 13.1591 8.16013 13.1591 8.5C13.1591 8.83987 12.8978 9.11539 12.5754 9.11539H8.48904C8.16663 9.11539 7.90527 8.83987 7.90527 8.5V4.19231C7.90527 3.85244 8.16663 3.57692 8.48904 3.57692Z" fill="#FF859B"/>
</svg>
