<svg width="12" height="13" viewBox="0 0 12 13" fill="none" xmlns="http://www.w3.org/2000/svg">
<g clip-path="url(#clip0_305_406)">
<path fill-rule="evenodd" clip-rule="evenodd" d="M5.99997 1.57269C6.16242 1.57269 6.30639 1.67729 6.3566 1.83179L7.49115 5.32269H11.25C11.4143 5.32269 11.5595 5.4297 11.6082 5.58668C11.6568 5.74366 11.5976 5.91402 11.462 6.00697L8.41474 8.09655L9.58965 11.5778C9.64182 11.7324 9.58806 11.903 9.45667 11.9997C9.32527 12.0964 9.14642 12.0971 9.0143 12.0013L5.99997 9.81705L2.98563 12.0013C2.85352 12.0971 2.67466 12.0964 2.54327 11.9997C2.41188 11.903 2.35811 11.7324 2.41028 11.5778L3.5852 8.09655L0.537894 6.00697C0.402354 5.91402 0.343124 5.74366 0.391775 5.58668C0.440427 5.4297 0.585622 5.32269 0.749967 5.32269H4.50878L5.64333 1.83179C5.69354 1.67729 5.83752 1.57269 5.99997 1.57269ZM5.99997 3.16095L5.13785 5.8136C5.08764 5.9681 4.94367 6.07269 4.78122 6.07269H1.95994L4.24329 7.63842C4.38169 7.73332 4.44019 7.90861 4.38653 8.06761L3.4964 10.705L5.77993 9.05029C5.9112 8.95516 6.08873 8.95516 6.22001 9.05029L8.50353 10.705L7.61341 8.06761C7.55975 7.90861 7.61825 7.73332 7.75664 7.63842L10.04 6.07269H7.21872C7.05627 6.07269 6.91229 5.9681 6.86208 5.8136L5.99997 3.16095Z" fill="#FF859B"/>
</g>
<defs>
<clipPath id="clip0_305_406">
<rect width="12" height="12" fill="white" transform="translate(0 0.822693)"/>
</clipPath>
</defs>
</svg>
