<svg width="12" height="12" viewBox="0 0 12 12" fill="none" xmlns="http://www.w3.org/2000/svg">
<path d="M9.23443 11.0729C9.1555 11.0732 9.07848 11.0486 9.01435 11.0026L6.00005 8.81724L2.98576 11.0026C2.92136 11.0493 2.84377 11.0743 2.76422 11.074C2.68467 11.0737 2.60727 11.0481 2.54321 11.0009C2.47915 10.9538 2.43176 10.8874 2.40788 10.8116C2.384 10.7357 2.38487 10.6542 2.41036 10.5788L3.58599 7.0967L0.539115 5.00724C0.473117 4.96203 0.423306 4.89691 0.39696 4.82137C0.370613 4.74584 0.369111 4.66386 0.392674 4.58741C0.416236 4.51096 0.463628 4.44405 0.527926 4.39646C0.592223 4.34886 0.670056 4.32308 0.750052 4.32287H4.50896L5.64333 0.831852C5.66777 0.756482 5.71545 0.690789 5.77954 0.644198C5.84362 0.597606 5.92082 0.57251 6.00005 0.57251C6.07928 0.57251 6.15648 0.597606 6.22057 0.644198C6.28465 0.690789 6.33233 0.756482 6.35677 0.831852L7.49115 4.32404H11.2501C11.3301 4.324 11.4082 4.34961 11.4726 4.39711C11.5371 4.44461 11.5847 4.51152 11.6084 4.58802C11.6321 4.66453 11.6307 4.74662 11.6044 4.82227C11.5781 4.89792 11.5282 4.96315 11.4622 5.00841L8.41411 7.0967L9.58904 10.5779C9.60807 10.6342 9.61343 10.6943 9.60466 10.7531C9.59589 10.812 9.57325 10.8679 9.5386 10.9163C9.50396 10.9646 9.45831 11.004 9.40542 11.0313C9.35253 11.0585 9.29392 11.0728 9.23443 11.0729Z" fill="#FF859B"/>
</svg>
